<svg xmlns="http://www.w3.org/2000/svg" width="140" height="29" viewBox="0 0 140 29">
    <g fill="none" fill-rule="nonzero">
        <g fill="#FFF">
            <path d="M43.94 14.483c-2.622 0-4.247-.624-4.247-3.734V8.42c0-.965.605-1.54 1.618-1.54h5.258c1.014 0 1.62.575 1.62 1.54v2.33c0 3.11-1.626 3.734-4.25 3.734zm-2.63-6.352c-.367 0-.367.073-.367.288v2.33c0 2.123.748 2.482 2.996 2.482 2.567 0 3-.62 3-2.482V8.42c0-.215 0-.288-.37-.288h-5.258z"/>
            <path d="M43.94 17.568c-5.858 0-6.665-2.908-6.665-6.05V3.756c-.002-.82-.004-1.75.677-2.434.51-.513 1.303-.762 2.423-.762h7.132c1.12 0 1.912.25 2.422.762.68.684.679 1.612.677 2.432v7.764c0 3.142-.808 6.05-6.667 6.05zM40.374 2.171c-.644 0-1.1.102-1.286.289-.21.211-.21.736-.208 1.292v7.766c0 3.008.757 4.44 5.058 4.44 4.303 0 5.06-1.432 5.06-4.44V3.75c.002-.556.003-1.08-.207-1.29-.185-.187-.642-.29-1.285-.29h-7.132z"/>
            <path d="M47.155 6.273H40.83a1.117 1.117 0 0 1-1.114-1.117V3.995c0-.617.5-1.118 1.114-1.118h6.324c.614 0 1.114.501 1.114 1.118v1.161c0 .616-.5 1.117-1.114 1.117zm-6.1-1.342h5.875v-.712h-5.874v.712zM47.31 10.141h-6.948a.626.626 0 0 1 0-1.253h6.948a.626.626 0 0 1 0 1.253zM40.556 12.261a.626.626 0 0 1 0-1.253l6.798-.002a.626.626 0 0 1 0 1.253l-6.797.002zM41.105 16.447a.627.627 0 0 1-.592-.828l.654-1.937a.625.625 0 1 1 1.184.402l-.655 1.937a.625.625 0 0 1-.591.426zM46.784 16.447a.625.625 0 0 1-.592-.425l-.655-1.938a.624.624 0 1 1 1.183-.403l.656 1.938a.627.627 0 0 1-.592.828z"/>
            <g>
                <path d="M93.727 11.704h-.016a.805.805 0 0 1-.787-.82c.013-.781-.128-3.052-.939-4.164-.878-1.21-2.097-1.725-4.076-1.725-1.978 0-3.196.515-4.075 1.724-.81 1.113-.952 3.384-.938 4.165a.805.805 0 0 1-.788.82.808.808 0 0 1-.819-.79c-.002-.136-.05-3.364 1.247-5.144.744-1.024 2.112-2.386 5.373-2.386 3.263 0 4.63 1.362 5.374 2.387 1.297 1.78 1.25 5.008 1.247 5.144a.804.804 0 0 1-.803.79z"/>
                <path d="M81.707 17.82a.807.807 0 0 1-.381-1.515c3.413-1.839 5.677-5.757 5.677-7.54V1.155a.804.804 0 1 1 1.607 0v7.608c0 2.57-2.79 6.948-6.524 8.96a.798.798 0 0 1-.38.096z"/>
                <path d="M93.904 17.82a.8.8 0 0 1-.38-.096c-3.732-2.013-6.52-6.39-6.52-8.96a.804.804 0 1 1 1.606 0c0 1.784 2.263 5.701 5.675 7.542a.807.807 0 0 1-.381 1.514z"/>
            </g>
            <g>
                <path d="M61.476 15.307a.806.806 0 0 1-.435-1.483c2.778-1.787 4.186-3.426 4.186-4.872v-7.76a.804.804 0 1 1 1.606 0v7.76c0 2.06-1.61 4.096-4.925 6.227a.799.799 0 0 1-.432.128z"/>
                <path d="M70.585 15.307a.798.798 0 0 1-.433-.128c-3.314-2.13-4.925-4.168-4.925-6.227a.804.804 0 1 1 1.606 0c0 1.447 1.409 3.086 4.186 4.872a.806.806 0 0 1-.434 1.483zM65.986 17.552c-4.284 0-6.456-1.999-6.456-5.94V3.75a.804.804 0 1 1 1.607 0v7.86c0 3.076 1.405 4.33 4.849 4.33a.804.804 0 0 1 0 1.611z"/>
                <path d="M65.986 17.552a.804.804 0 0 1 0-1.61c3.445 0 4.85-1.255 4.85-4.33V3.75a.804.804 0 1 1 1.607 0v7.86c0 3.942-2.173 5.941-6.457 5.941z"/>
            </g>
            <g>
                <path d="M102.457 6.398a.717.717 0 0 1-.596-1.11l3.25-4.944a.713.713 0 0 1 .596-.322h.009c.243.003.468.13.597.337l3.001 4.82a.717.717 0 0 1-.227.986.713.713 0 0 1-.984-.228l-2.412-3.874-2.638 4.013a.712.712 0 0 1-.596.322z"/>
                <path d="M103.36 3.975h4.745v1.432h-4.745zM105.56 12.485c-1.735 0-2.995-1.255-2.995-2.985V8.019c0-.597.617-1.724 1.476-1.807a5.18 5.18 0 0 1 1.193-.118h.653c.329 0 .692.01 1.193.118.859.083 1.476 1.21 1.476 1.807V9.5c0 1.73-1.26 2.985-2.995 2.985zm-1.567-4.442V9.5c0 .943.615 1.553 1.567 1.553s1.567-.61 1.567-1.553V8.043a1.099 1.099 0 0 0-.261-.413 3.788 3.788 0 0 0-.98-.105l-.326.001h-.326a3.789 3.789 0 0 0-.98.104c-.094.082-.233.3-.261.413z"/>
                <path d="M103.225 8.463h4.64v1.432h-4.64zM107.956 15.72a.71.71 0 0 1-.32-.076c-.152-.077-1.51-.762-2.038-1.148-.722-.527-.76-1.858-.744-2.406a.715.715 0 1 1 1.427.044c-.013.481.073 1.063.18 1.22.387.275 1.436.82 1.815 1.01a.717.717 0 0 1-.32 1.356z"/>
                <path d="M105.943 18.285a.707.707 0 0 1-.36-.098c-.03-.018-.743-.44-1.736-1.317-.576-.512-.905-1.198-.927-1.934-.02-.692.23-1.368.671-1.808.337-.336 1.176-1.178 1.176-1.178l1.01 1.012s-.84.844-1.178 1.181c-.132.132-.261.415-.252.751.008.238.09.588.445.903.88.775 1.509 1.152 1.515 1.155a.717.717 0 0 1-.364 1.333zM110.064 15.8a.715.715 0 0 1-.714-.716V4.462c.055-2.604 1.171-3.11 3.08-3.11h3.19a.715.715 0 0 1 0 1.431h-3.19c-.724 0-1.113.072-1.303.24-.215.19-.333.68-.35 1.455v10.607c0 .395-.319.715-.713.715z"/>
                <path d="M111.77 10.659a.715.715 0 0 1-.044-1.43c.032-.003.819-.052 2.058-.052.471 0 1.064-.49 1.241-1.31.16-.742.04-1.421-.342-1.91a1.627 1.627 0 0 0-1.253-.638c-.952-.03-1.654 0-1.66 0a.712.712 0 0 1-.744-.686.715.715 0 0 1 .683-.745c.03-.001.757-.031 1.765 0a3.073 3.073 0 0 1 2.334 1.187c.647.83.865 1.93.613 3.095-.306 1.413-1.415 2.438-2.637 2.438-1.195 0-1.96.048-1.968.049a.555.555 0 0 1-.046.002z"/>
                <path d="M117.54 18.086a.714.714 0 0 1-.637-.39c-.056-.11-1.379-2.72-1.69-4.8a34.963 34.963 0 0 1-.242-2.231l-.006-.168-.001-.026c0-1.16-.453-2.065-1.242-2.48-.342-.18-1.054-.18-1.344-.15a.716.716 0 1 1-.141-1.425c.135-.013 1.34-.119 2.15.306 1.252.661 2.001 2.057 2.005 3.736l.005.137c.076.896.15 1.579.227 2.088.278 1.852 1.538 4.336 1.55 4.36a.717.717 0 0 1-.635 1.043z"/>
            </g>
            <g>
                <path d="M133.459 17.857c-3.056 0-4.809-1.748-4.809-4.795V10.26a.804.804 0 1 1 1.606 0v2.802c0 2.172 1.018 3.184 3.203 3.184 2.148 0 3.148-1.012 3.148-3.184V10.26a.804.804 0 1 1 1.606 0v2.802c0 3.092-1.688 4.795-4.754 4.795zM133.51 3.65a.804.804 0 0 1-.802-.806V1.17a.804.804 0 1 1 1.606 0v1.675c0 .445-.36.806-.803.806z"/>
                <path d="M125.302 17.818a.806.806 0 0 1-.734-1.133c.012-.026 1.196-2.714 1.46-4.49.198-1.348.334-3.916.433-5.79l.062-1.14c.117-2.025 1.354-3.052 3.677-3.052h8.156a.804.804 0 0 1 0 1.61H130.2c-1.484 0-2.007.388-2.073 1.535l-.062 1.132c-.1 1.907-.24 4.517-.448 5.942-.296 1.995-1.528 4.79-1.58 4.908a.803.803 0 0 1-.735.478z"/>
                <path d="M133.315 11.7a.804.804 0 0 1-.803-.806V5.1a.804.804 0 1 1 1.606 0v5.795c0 .445-.36.806-.803.806z"/>
                <path d="M138.157 8.028h-4.674a.804.804 0 0 1 0-1.61h4.674a.804.804 0 0 1 0 1.61zM136.618 12.185h-6.368a.804.804 0 0 1 0-1.61h6.368a.804.804 0 0 1 0 1.61z"/>
            </g>
        </g>
        <g fill="#FFF">
            <path d="M41.147 25.954c0 .654.05.719 1.002.719v.318H39.08v-.318c.953 0 1.003-.065 1.003-.719v-5.217h-1.3c-.633 0-.72.05-.944 1.126h-.435l.252-1.551h5.917l.253 1.551h-.435c-.235-1.088-.322-1.126-.95-1.126h-1.294v5.217zM51.07 25.948c0 .654.066.72.86.72v.324h-2.683v-.325c.7 0 .759-.061.759-.704v-2.245h-3.728v2.245c0 .644.06.704.76.704v.325h-2.684v-.325c.794 0 .86-.065.86-.719v-4.593c0-.654-.066-.719-.86-.719v-.324h2.685v.324c-.701 0-.76.06-.76.704v1.973h3.727v-1.97c0-.646-.058-.707-.76-.707v-.324h2.684v.324c-.794 0-.86.065-.86.719v4.593zM52.711 26.992v-.325c.818 0 .893-.063.893-.716v-4.6c0-.652-.078-.715-.898-.715v-.325h5.47l.348 1.466h-.474c-.289-1.03-.405-1.061-.99-1.061h-1.996c-.363 0-.396.059-.396.441v2.158h1.738c.478 0 .56-.093.56-.916h.459v2.262h-.46c0-.877-.078-.942-.56-.942h-1.737v2.47c0 .356.092.398.313.398h2.382c.626 0 .744-.056 1.045-1.096h.473l-.386 1.5H52.71zM67.42 25.246c0-.486-.059-.544-.914-.544v-.325h2.596v.325c-.667 0-.715.034-.715.465v1.13c-.258.208-.63.418-1.085.582a4.395 4.395 0 0 1-1.438.244c-.904 0-1.75-.255-2.372-.788-.649-.567-1.066-1.478-1.066-2.696 0-1.142.407-2.053 1.113-2.65.627-.516 1.492-.81 2.614-.81a5.727 5.727 0 0 1 1.884.34c.071.515.154.947.279 1.501l-.465.08c-.147-.644-.287-1.03-.59-1.252-.224-.17-.6-.287-1.181-.287-.701 0-1.316.256-1.756.71-.493.521-.785 1.327-.785 2.314 0 .963.266 1.822.756 2.38.424.46.996.738 1.688.738a2.488 2.488 0 0 0 1.437-.453v-1.004zM75.6 26.033c.458.57.633.634 1.16.634v.325h-1.651l-2.323-3.071h-1.107v2.03c0 .665.053.716.889.716v.325h-2.844v-.325c.825 0 .891-.063.891-.718v-4.592c0-.658-.066-.72-.89-.72v-.325h3.134c1.122 0 1.786.108 2.367.438.513.292.797.723.797 1.273 0 .44-.2.876-.624 1.212-.333.264-.9.493-1.568.572l1.769 2.226zm-3.92-2.517h.932c.814 0 1.387-.14 1.766-.403.388-.277.535-.634.535-1.078 0-.367-.156-.724-.51-.964-.315-.22-.79-.355-1.563-.355h-.859c-.278 0-.301.08-.301.558v2.242zM78.938 24.89l-.461 1.099c-.237.558-.186.678.516.678v.325H77.07v-.325c.394 0 .562-.086.75-.503l2.694-5.984h.575l2.994 5.856c.261.52.428.631.85.631v.325h-2.507v-.325c.713 0 .758-.137.523-.606l-.564-1.171h-3.446zm1.65-3.657h-.044l-1.418 3.252h3.055l-1.593-3.252zM91.255 25.85h.022v-4.495c0-.659-.086-.719-.866-.719v-.324h2.193v.324c-.72 0-.805.062-.805.719v5.72h-.72l-4.298-5.922h-.022v4.795c0 .658.077.72.834.72v.324h-2.192v-.325c.761 0 .836-.061.836-.719v-4.6c0-.662-.064-.712-.846-.712v-.324H87.3l3.956 5.538zM93.242 26.667c.8 0 .865-.065.865-.718v-4.594c0-.654-.065-.719-.865-.719v-.324h3.12c1.274 0 2.106.22 2.752.788.695.619.982 1.48.982 2.474 0 1.03-.28 1.9-.905 2.502-.628.58-1.525.915-3.091.915h-2.858v-.324zm1.929-.579c0 .439.052.51.396.51h.535c.983 0 1.73-.269 2.213-.81.467-.503.668-1.214.668-2.104 0-.986-.18-1.708-.685-2.274-.46-.51-1.12-.706-1.987-.706h-.768c-.314 0-.372.076-.372.423v4.961zM110.38 25.948c0 .654.066.72.86.72v.324h-2.683v-.325c.701 0 .759-.061.759-.704v-2.245h-3.727v2.245c0 .644.059.704.76.704v.325h-2.685v-.325c.794 0 .86-.065.86-.719v-4.593c0-.654-.066-.719-.86-.719v-.324h2.685v.324c-.701 0-.76.06-.76.704v1.973h3.727v-1.97c0-.646-.058-.707-.759-.707v-.324h2.684v.324c-.795 0-.86.065-.86.719v4.593zM115.248 27.124c-1.027 0-1.87-.259-2.461-.837-.555-.544-.899-1.395-.899-2.637 0-1.243.37-2.164 1.038-2.739.613-.514 1.435-.731 2.334-.731.896 0 1.718.217 2.331.731.667.576 1.037 1.496 1.037 2.739 0 1.242-.343 2.093-.898 2.637-.59.578-1.435.837-2.47.837h-.012zm.004-6.564c-.614 0-1.16.192-1.569.617-.42.46-.682 1.216-.682 2.474 0 1.043.224 1.904.68 2.45.363.392.943.642 1.58.642.632 0 1.212-.25 1.576-.642.455-.546.679-1.407.679-2.45 0-1.258-.263-2.014-.682-2.474-.408-.425-.955-.617-1.571-.617h-.011zM122.883 25.954c0 .654.05.719 1.002.719v.318h-3.07v-.318c.953 0 1.003-.065 1.003-.719v-5.217h-1.299c-.634 0-.72.05-.944 1.126h-.435l.252-1.551h5.917l.252 1.551h-.434c-.235-1.088-.322-1.126-.95-1.126h-1.294v5.217zM126.12 26.992v-.325c.818 0 .892-.063.892-.716v-4.6c0-.652-.077-.715-.897-.715v-.325h5.47l.347 1.466h-.473c-.29-1.03-.406-1.061-.99-1.061h-1.996c-.364 0-.396.059-.396.441v2.158h1.737c.479 0 .56-.093.56-.916h.46v2.262h-.46c0-.877-.079-.942-.56-.942h-1.737v2.47c0 .356.09.398.312.398h2.382c.626 0 .744-.056 1.045-1.096h.473l-.386 1.5h-5.783zM138.466 26.992h-5.456v-.325c.797 0 .87-.064.87-.732v-4.58c0-.653-.076-.719-.87-.719v-.324h2.8v.324c-.816 0-.866.06-.866.727v4.794c0 .384.069.43.362.43h2.02c.63 0 .75-.07 1.055-1.147h.476l-.391 1.552z"/>
        </g>
        <g fill="#DCAD00">
            <path d="M23.464 28.127H5.699c-1.563 0-2.843-1.2-2.918-2.701A2.87 2.87 0 0 1 .005 22.61V6.604c0-1.52 1.233-2.765 2.776-2.837.075-1.502 1.355-2.702 2.918-2.702h17.765c1.56 0 2.84 1.2 2.915 2.702 1.544.072 2.778 1.317 2.778 2.837V22.59a2.884 2.884 0 0 1-2.779 2.837 2.887 2.887 0 0 1-2.914 2.7zM2.924 4.047C1.476 4.048.298 5.196.298 6.605V22.61a2.585 2.585 0 0 0 2.626 2.534h.146v.143c0 1.409 1.18 2.555 2.629 2.555h17.765a2.596 2.596 0 0 0 2.626-2.555v-.143h.146a2.597 2.597 0 0 0 2.63-2.555V6.604c0-1.41-1.18-2.556-2.63-2.556h-.146v-.143c0-1.409-1.178-2.555-2.626-2.555H5.699c-1.45 0-2.63 1.146-2.63 2.555v.143h-.145z"/>
            <path d="M9.423 8.274c-.119-.02-.491-.074-.54-.128-.05-.052-.432-.133-.54-.077a.297.297 0 0 0-.085.426c.124.166.234.286.278.362.061.1.135.25.351.306.26.07.164.257.433.282.089.006.182-.058.35-.094.156-.035.595-.171.736-.205.141-.034.37-.08.828-.115.38-.03.544-.031.687-.05.293-.038.62-.17.803-.184.182-.01.363-.015.552-.075.187-.06.624-.261.744-.29.26-.06.526-.139.597-.139.182-.006.44-.168.959-.266.235-.045.775-.312.867-.346l.882-.232c.258-.07.355-.072.471-.113.117-.043.145-.012.316-.032a.77.77 0 0 0 .321-.102c.078-.048.153-.12.249-.152.095-.034.255-.23.317-.255.062-.025.14-.135.217-.16.133-.043.192-.197.232-.254.037-.054.068-.11.137-.157.07-.047.102-.09.208-.183.053-.045.076-.155.16-.205.086-.048.257-.215.292-.34.013-.044 0-.222-.217-.116-.219.105-.309.286-.706.512-.397.226-.638.378-.951.48-.234.076-.307.133-.447.174-.143.042-.332.055-.417.096-.085.042-.375.203-.494.238-.118.033-.806.26-1.073.292-.27.028-1.04.234-1.423.345-.385.111-1.084.292-1.338.305-.153.01-.282.086-.52.13-.235.045-.805.075-1 .127-.196.052-.392.135-.512.137-.117.004-.39.025-.627.055a5.538 5.538 0 0 1-.596.034c-.133 0-.382-.012-.501-.031z"/>
            <path d="M7.553 9.961c-.103-.025-.5-.237-.856-.313a20.784 20.784 0 0 0-.846-.164c-.172-.02-.457-.188-.5-.224a2.303 2.303 0 0 0-.305-.2c-.317-.094-.384.286-.215.436.145.13.34.267.42.325.077.056.17.136.226.165.057.028.356.203.457.307.098.101.185.17.325.259.14.086.463.194.82.327.183.07.313.239.573.369.133.069.302.025.382.012.08-.012.72-.115.85-.13a9.01 9.01 0 0 0 .841-.143c.213-.058.67-.077.782-.071.114.002.304.02.674-.098.268-.087.71-.116.84-.132.13-.017.77-.087.942-.13.171-.042.838-.126.993-.131.154-.006.804-.032.986-.01.18.021.192.07.45-.02.068-.024.46-.125.64-.137.18-.009.533-.05.783-.047.244.002.37.025.64.01.27-.015.655-.002.772-.046a2.2 2.2 0 0 1 .516-.112c.066-.01.548-.12.794-.103.247.018.672-.039.909-.152a3.29 3.29 0 0 0 .67-.429c.104-.102.519-.625.624-.692.088-.056.43-.478.745-.59.248-.087.242-.193.37-.38.044-.068.129-.085.159-.108.058-.045.172-.073.197-.114.044-.061.128-.09.233-.165.105-.074.085-.146.125-.178.059-.047.124-.148.15-.181.083-.098.182-.272.217-.32.032-.045.114-.128.173-.202.059-.074.006-.123.083-.206.035-.038.04-.127.003-.229-.022-.063-.107-.073-.138-.06-.03.011-.34.242-.448.309-.105.067-.25.179-.334.219-.08.04-.25.165-.346.217-.145.078-.337.272-.524.383-.19.11-.292.134-.397.17-.108.035-.221.049-.285.072-.063.024-.323.184-.515.245-.194.06-.658.243-.753.279-.093.036-.364.204-.487.278-.12.075-.49.304-.695.382-.221.084-.428.17-.581.21-.156.041-.627.201-.745.217-.122.017-.67.012-.87.048-.195.038-.942.24-1.091.277-.108.023-.659.11-.785.146a5.134 5.134 0 0 1-.592.138c-.162.021-.822.064-.993.085-.169.021-.33.102-.415.099-.184-.011-.414.064-.567.101-.154.036-.984.104-1.118.098-.135-.006-.633.043-.723.047-.09.005-.27.064-.51.08-.241.013-.606.061-.76.066-.153.005-.28.021-.509-.005-.23-.029-.523-.024-.598-.033a1.3 1.3 0 0 1-.413-.118c-.13-.064-.272.041-.45-.003z"/>
            <path d="M6.794 12.067s.214.018 0 0c-.215-.02-.463-.133-.559-.155-.096-.02-.44-.047-.668-.113-.225-.065-.183-.069-.254-.079a.958.958 0 0 1-.215-.054c-.096-.032-.169-.084-.169-.084-.182-.097-.424-.262-.576-.328-.151-.066-.264-.156-.484-.044-.16.082-.088.397-.045.424.128.082.68.48.794.57.113.09.553.358.707.455.135.088.36.209.458.292.095.084.315.317.577.357.206.033.288-.057.38-.1.256-.12.502-.126.651-.143.151-.02.37-.093.472-.126.102-.033.433-.12.53-.122 0 0 .164-.039.33-.041.08-.002.29.033.368.026.167-.015.59-.192.838-.213.179-.015.438-.09.51-.103.068-.012.743-.073.91-.076.167-.003.44.003.581-.022.144-.027.286-.065.427-.044.145.02.298.063.429.05.13-.015.934-.182 1.029-.196.094-.013.222-.06.629.023.315.064 1.506-.053 1.863-.096.355-.04 1.126-.069 1.352-.062.225.008 1.031-.088 1.21-.07.176.02.787.133 1.071.152.283.017.58-.04.784-.031.2.007.786.171 1.256.023.464-.144.579-.265 1.032-.69.225-.21.6-.798.703-.928.105-.128.568-.669.639-.752.067-.081.09-.186.137-.21.047-.024.383-.331.454-.402.07-.07.198-.235.267-.295.069-.059.093-.036.153-.141.055-.104.1-.209.147-.257.046-.047.082-.071.128-.141.044-.07.054-.245-.194-.17a1.16 1.16 0 0 0-.469.288c-.082.093-.113.176-.255.27-.141.095-.304.191-.41.308a1.94 1.94 0 0 1-.56.428c-.328.157-.328.18-.4.205-.07.024-.185.2-.526.38-.206.108-.679.198-.786.306-.318.306-.935.261-1.134.299-.202.039-1.046.01-1.235.035-.19.03-1.564.138-1.777.164-.214.028-.582.035-.854.087-.27.052-.544.07-.76.073-.211.005-.403-.014-.543.024-.142.036-.505.19-.745.176-.285-.017-.794.062-1.209.094-.26.02-.784-.047-1.079.067-.282.11-2.033.377-2.317.406-.283.028-1.623.183-1.954.213-.332.03-1.139.164-1.699.083M7.132 13.916c-.17.002-.345-.087-.444-.061-.098.022-.416.022-.458.23-.017.08.088.345.084.433-.01.172-.053.176-.079.224-.039.075-.03.287.17.369.201.082.307.04.477.003.086-.019.345-.12.44-.128.093-.007.538-.015.743 0 .206.013.623-.074.792-.15.17-.077.368-.116.521-.14.152-.026.564-.032.65-.052.089-.017.556-.1.77-.109.209-.009.545.06.67.053.121-.01.433-.06.709-.08.32-.026.715-.133 1.036-.11.21.015.527.123.807.102.283-.022.863-.06 1.157-.106.291-.045.339-.097.567-.113a57.465 57.465 0 0 1 1.726-.005c.211.001 1.215-.047 1.729-.074.113-.006.22-.033.373-.006.118.021.186-.107.592-.112.265-.005.423.02.59-.011.17-.031.266-.102.403-.109.132-.007.332.04.496-.003.165-.043.308-.103.33-.228.018-.086-.04-.134-.126-.188a.588.588 0 0 0-.365-.096c-.335.011-.335.029-.5.002-.164-.024-.376-.101-.645-.067 0 0-.27.048-.457.074a2.186 2.186 0 0 1-.59-.013 2.365 2.365 0 0 0-.592.004c-.148.026-.337-.125-.56-.086-.192.03-.413-.046-.658-.013-.398.052-.693.028-.846.048-.152.02-.167.1-.333.096-.164-.002-.207-.048-.345-.022-.14.025-.41.131-.563.123-.153-.009-.424-.061-.53-.076-.107-.015-.399.028-.51.002a8.033 8.033 0 0 0-.743-.12c-.26-.007-.514.17-.76.185-.13.007-.54.066-.723.012-.183-.055-.561-.264-.762-.28-.618-.047-1.648.26-1.787.276-.235.027-.519-.019-.676 0-.159.02-.403.099-.563.1-.158.003-.352-.022-.48.015-.13.035-.292.102-.416.143-.123.044-.321.064-.321.064zM6.972 15.754s-.214.017-.396-.004c-.183-.021-.308-.063-.394-.018-.135.07-.092.364-.13.403-.04.039-.139.153-.09.478.017.115.092.154.177.314.05.09.12.12.184.127.063.008.307-.103.362-.104.054 0 .302-.033.508.125.04.031.468.011.649-.007.176-.016.442-.09.529-.091.087-.001.174.013.229-.018.056-.031.15-.086.236-.103.088-.017.853-.103.981-.119.125-.017.497-.068.695-.078.197-.01.441.019.576.01.135-.01.49-.13.585-.138.093-.009.196.028.292-.004.094-.033.253-.141.307-.15.054-.008.246.005.348-.003.104-.01.33-.051.41-.012.081.036.328.217.478.255.24.059.632-.092.735-.1.102-.01.761.068.95.05.191-.018.711-.116.916-.095.214.021 1.269-.122 1.43-.149.15-.023.807-.124 1.005-.125.198-.004.26.05.427.032.166-.017.452-.127.762-.083.172.022.344-.032.445-.023.202.018.566-.092.724-.109.158-.016.609-.071.744-.05.133.023.177.05.331.006.112-.031.253-.224-.02-.323 0 0-.14-.128-.534-.17-.4-.042-.538.007-.64.03-.104.025-.182.05-.302.05-.12.002-.536.023-.751-.015-.214-.035-.566-.254-1.096-.28-.53-.024-.773.103-.939.104-.165.002-.682-.091-.83-.091-.152.003-.634.102-.72.094-.09-.007-.27-.059-.396-.035-.128.026-.34.11-.602.108-.418-.003-.753-.138-1.14-.14-.404-.003-.744-.022-.83-.007-.086.017-.102.07-.211.065-.114-.007-.218-.06-.295-.05-.078.008-.553.108-.782.093-.23-.013-.548-.072-.769-.061-.22.01-.726.063-1.01.158-.284.097-.45.134-.852.133-.57 0-.698-.06-.896-.058a4.983 4.983 0 0 0-.734.077c-.222.043-.514.091-.656.1zM7.06 17.877c-.3.007-.53-.156-.658-.165-.449-.033-.698.14-.772.46-.002.009-.124.614-.036 1.029.053.26-.216.34-.118.49.14.217.318.196.517.046.198-.152.666-.39.8-.392.137-.003.316-.137.469-.142.151-.002.469-.075.62-.077.151-.005.317-.12.518-.14.2-.022.317-.089.451-.093.135-.003 1.443 0 1.593-.017.15-.021.382-.107.566-.112.27-.005.391-.014.574-.05.185-.037.331-.113.432-.113.102-.004.265.049.459 0 .164-.039.327-.055.645-.062.319-.006.655-.145 1.11-.074.454.073.768.088.936.084.167-.003.492-.071.608-.051.166.029.456-.006.572-.04.116-.037.432-.145.75-.136.32.01.675.132.824.13.152-.004.387-.026.557.053.171.078.538-.045.67-.032.135.013.405.058.589.053.185-.005.436-.075.688-.063.25.01.611.025.89.078.52.099.45-.083.653-.04.31.068.563.065.944.21.105.04.284.01.402.04.12.031.167.008.269.07.1.064.21.061.291.03.134-.052.116-.285-.053-.378-.17-.097-.272-.159-.338-.189-.067-.032-.49-.104-.576-.136-.083-.03-.817-.288-1.021-.303-.203-.018-.387-.109-.64-.135-.253-.027-.37-.075-.455-.122-.086-.047-.237-.028-.389-.023-.15.002-.267-.092-.418-.057-.153.036-.35.123-.555.095-.201-.03-.405-.188-.624-.184-.217.005-.652.096-.921.037-.272-.06-.71-.217-.878-.191-.233.035-.303.036-.587-.006a5.482 5.482 0 0 0-.817-.033c-.182.004-.796-.046-1.097-.006-.301.039-.382.009-.532.094-.148.084-.075.057-.342.111-.267.056-.328-.047-.539.02-.134.039-.46.121-.742.18-.387.083-.51-.026-.914-.066-.402-.04-.851.022-1.085.045-.235.02-.22.033-.303.084-.083.05-.804.037-1.004.025-.202-.012-.338.01-.477.014-.15.002-.23-.009-.478.046-.181.041-.465-.046-.647.02-.136.049-.38.084-.38.084z"/>
            <path d="M4.299 22.294s.256-.04 0 0c-.254.042-.54.182-.65.214-.113.03-.565.4-.83.49-.265.09-.212.09-.297.108a1.415 1.415 0 0 0-.252.076c-.11.042-.19.104-.19.104-.208.115-.477.303-.652.385-.172.083-.296.184-.575.095-.205-.064-.16-.385-.115-.416.144-.096.758-.55.882-.653.123-.1.619-.413.789-.526.152-.102.402-.09.51-.183.105-.092.336-.347.646-.417.245-.054.384-.27.498-.238.328.092.488-.312.672-.309.184.003 1.02-.404 1.148-.382.127.022.525-.181.64-.188 0 0 .19-.175.391-.189.098-.007.676-.008.774-.012.2 0 .726-.223 1.027-.23.217-.004.705-.197.791-.192.087.005.315-.14.515-.153.2-.016.537-.088.71-.078.176.01.385-.042.555-.076.17-.036.505-.087.663-.087.16 0 .913-.042 1.029-.038.115.002.512.088.989-.039.371-.1 1.511.035 1.946.039.433.002 1.295.226 1.567.195.272-.03 1.248.254 1.46.216.21-.038 1.238.283 1.58.237.342-.047.905.327 1.147.298.245-.029.718.199 1.307.295.578.094.731.202 1.337.575.298.186 1.069.461 1.211.579.143.116.764.323.86.397.094.075.133.176.194.195.06.019.507.287.602.352.093.062.27.211.362.263.092.05.119.025.202.124.086.099.152.2.215.24.063.043.108.061.172.127.066.064.14.443-.17.397a1.536 1.536 0 0 1-.604-.235c-.114-.085-.165-.163-.345-.243-.183-.08-.394-.157-.534-.263a2.604 2.604 0 0 0-.734-.364c-.42-.122-.421-.143-.509-.161-.09-.018-.28-.262-.714-.405-.264-.085-.859-.248-1.007-.344-.419-.27-1.596-.358-1.844-.374-.245-.018-1.219-.235-1.452-.242-.231-.007-1.626-.23-1.887-.234-.26-.004-1.05-.207-1.384-.23a6.507 6.507 0 0 0-.923.008c-.258.018-.486.057-.66.035-.176-.021-.638-.134-.922-.095-.342.047-.965.023-1.47.035-.317.008-.94.128-1.31.048-.354-.079-2.36.39-2.706.393-.348 0-1.836.34-2.24.348-.403.006-1.82.605-2.485.746"/>
        </g>
    </g>
</svg>
